<svg width="25" height="25" viewBox="0 0 25 25" fill="none" xmlns="http://www.w3.org/2000/svg">
<g id="Icon 02">
<path id="Color" fill-rule="evenodd" clip-rule="evenodd" d="M20.7344 8.08405C20.1495 8.34115 19.5249 8.51629 18.8673 8.59627C19.5375 8.19244 20.053 7.55596 20.2969 6.79655C19.6683 7.16337 18.9717 7.43039 18.2302 7.5791C17.638 6.94526 16.794 6.54871 15.8568 6.54871C14.061 6.54871 12.605 8.00473 12.605 9.7985C12.605 10.0563 12.6347 10.3041 12.6889 10.5414C9.98572 10.4138 7.58984 9.11576 5.98643 7.15346C5.70421 7.63065 5.54625 8.18517 5.54625 8.78926C5.54625 9.91945 6.12126 10.9128 6.99236 11.4964C6.45899 11.4792 5.95735 11.3325 5.51981 11.0893V11.1296C5.51981 12.7059 6.63877 14.0205 8.12784 14.3199C7.85488 14.3933 7.56671 14.4329 7.27128 14.4329C7.06374 14.4329 6.8648 14.4131 6.66586 14.3761C7.08291 15.6669 8.28184 16.6081 9.70879 16.6345C8.59842 17.5063 7.1913 18.0258 5.67579 18.0258C5.41803 18.0258 5.16093 18.0106 4.9025 17.9815C6.34928 18.9028 8.05382 19.4415 9.89715 19.4415C15.8812 19.4415 19.1495 14.4871 19.1495 10.1977C19.1495 10.0596 19.1495 9.92011 19.1396 9.78131C19.7747 9.32593 20.3293 8.75026 20.7655 8.09726L20.7344 8.08405Z" fill="#FFF7DF"/>
</g>
</svg>
